<svg width="731" height="124" viewBox="0 0 731 124" xmlns="http://www.w3.org/2000/svg"><title>paysafecard-logo</title><g fill="#FFF" fill-rule="evenodd"><path d="M131.654 55.318c-.08-2.534-1.273-3.844-3.598-3.929h-12.39c-2.938.18-4.448 1.788-4.523 4.814v22.295c.075 3.125 1.747 4.716 5.009 4.807h11.354c1.18 0 2.163-.438 2.945-1.333.816-.67 1.203-1.533 1.203-2.602V55.318zm-36.422-3.165c.08-5.577 1.322-9.817 3.734-12.716 1.259-1.213 2.842-2.229 4.762-3.069 1.994-.895 3.928-1.326 5.805-1.326h22.749c10.034.086 15.136 5.573 15.298 16.475v33.556c-.076 3.87-1.59 7.228-4.524 10.04-2.898 2.95-6.365 4.453-10.4 4.543h-21.513v24.192H95.232V52.153zm81.072 27.917c0 .932.428 1.671 1.273 2.223.748.667 1.692 1.012 2.885 1.012h12.225c2.765 0 4.197-1.07 4.277-3.236v-4.565c0-2.49-1.459-3.748-4.394-3.748h-12.108c-1.59 0-2.69.264-3.305.765-.566.59-.853 1.757-.853 3.486v4.062zm20.66-25.146c.08-2.445-1.342-3.615-4.28-3.535H160.63V35.042h36.09c10.51.17 15.846 5.251 16.024 15.275v34.198c-.088 4.327-1.41 7.893-3.98 10.73-2.69 2.936-6.153 4.411-10.399 4.411H176.55c-10.617-.09-15.998-4.936-16.162-14.572V71.888c.081-10.07 5.227-15.186 15.408-15.363h21.168v-1.6zm60.48 52.574c1.263-.077 2.35-.532 3.24-1.345.853-.758 1.28-1.63 1.28-2.615v-3.882h-20.373c-2.66 0-4.784-.34-6.37-1.012-1.671-.616-3.342-1.76-5.02-3.385-1.591-1.722-2.736-3.525-3.428-5.407-.727-1.721-1.096-3.912-1.096-6.546V35.042h15.914v43.084c0 3.455 1.412 5.18 4.266 5.18h11.233c1.335 0 2.497-.44 3.466-1.333.942-.755 1.409-1.654 1.409-2.711v-44.22h15.78v71.2c-.087 5.27-1.441 9.489-4.044 12.688-2.65 3.2-6.264 4.836-10.876 4.918h-37.148v-16.35h31.767zm32.796-24.192h28.357c2.596-.091 3.942-1.13 4.023-3.12v-1.471c0-.424-.128-.895-.375-1.405-.634-1.233-1.413-1.848-2.337-1.848h-14.059c-4.172-.08-7.733-1.518-10.726-4.293-3.024-2.56-4.577-5.714-4.664-9.415v-12.19c.164-9.512 5.33-14.353 15.508-14.522h32.887V51.39h-27.861c-3.273 0-4.917 1.003-4.917 3v1.585c0 2.075 1.684 3.113 5.038 3.113h14.015c3.736.087 6.918 1.517 9.57 4.304 2.682 2.809 4.07 6.149 4.155 10.027v11.928c-.084 3.35-1.634 6.692-4.616 10.028-1.454 1.637-2.94 2.763-4.427 3.399-1.54.586-3.63.883-6.301.883h-33.27V83.306zm75.848-3.236c0 .932.428 1.671 1.289 2.223.74.667 1.69 1.012 2.867 1.012h12.246c2.766 0 4.192-1.07 4.274-3.236v-4.565c0-2.49-1.477-3.748-4.405-3.748h-12.115c-1.588 0-2.683.264-3.293.765-.566.59-.863 1.757-.863 3.486v4.062zm20.676-25.146c.068-2.445-1.354-3.615-4.295-3.535h-32.045V35.042h36.094c10.504.17 15.84 5.251 16.006 15.275v34.198c-.086 4.327-1.42 7.893-3.975 10.73-2.672 2.936-6.14 4.411-10.391 4.411H366.33c-10.61-.09-15.998-4.936-16.146-14.572V71.888c.07-10.07 5.209-15.186 15.404-15.363h21.176v-1.6zm28.695-29.152c.098-4.413 1.725-7.956 4.914-10.614 3.094-2.699 7.154-4.086 12.176-4.163h10.105V26.79h-6.117c-3.363.077-5.082 1.687-5.152 4.794v3.462h11.269V51.41h-11.269v48.254h-15.926V25.772zm72.457 28.848v-.381c0-.841-.34-1.554-1.027-2.086-.741-.515-1.649-.763-2.737-.763h-11.076c-1.422 0-2.568.397-3.455 1.212-1.101.754-1.662 1.747-1.662 2.969v6.565l19.957-7.516zm-19.703 23.109v1.017c0 1.31.34 2.35 1.031 3.104.5.965 1.174 1.456 2.07 1.456h32.692v16.35h-34.762c-3.172 0-5.64-.297-7.389-.89a13.45 13.45 0 0 1-5.119-3.083c-1.75-1.733-2.941-3.494-3.541-5.307-.656-1.889-.982-4.398-.982-7.523l-.135-32.721c.178-9.889 5.342-14.921 15.49-15.09h21.453c9.911.169 14.932 5.379 15.092 15.645v12.927l-35.9 14.115zm69.586 21.927c-2.41 0-4.61-.22-6.604-.628-2.091-.339-4.175-1.309-6.306-2.945-2.184-1.904-3.692-4.034-4.52-6.392-.875-2.315-1.3-4.938-1.3-7.892V51.29c-.086-2.488.164-4.675.744-6.567.537-1.894 1.66-3.742 3.359-5.556 1.938-1.905 3.912-3.169 6.002-3.79 2.006-.504 4.27-.756 6.805-.756h24.388v3.821h-23.824c-4.205 0-7.512.864-9.93 2.595-2.474 1.89-3.732 5.141-3.732 9.727v30.532c0 2.148.326 4.236.98 6.252.668 1.983 1.778 3.72 3.379 5.24 1.73 1.316 3.46 2.137 5.143 2.472 1.758.387 3.637.57 5.635.57h22.734v3.827h-22.953zM623.1 60.071h-31.978c-3.832.09-6.825 1.272-8.99 3.553-2.233 2.313-3.34 5.492-3.34 9.525v9.738c0 1.89.198 3.615.602 5.17.403 1.634 1.407 3.095 2.992 4.351 2.764 2.29 5.822 3.42 9.165 3.42h19.375c8.095-.084 12.173-4.35 12.173-12.82V60.071zm3.798 21.985c0 2.455-.188 4.615-.504 6.51-.515 2.065-1.573 4.053-3.18 5.942-3.34 3.52-7.482 5.237-12.42 5.148H591.78c-4.938 0-8.944-1.475-12.045-4.412-3.168-2.904-4.774-6.94-4.774-12.115v-9.833c.16-11.1 5.69-16.782 16.58-17.04h31.673V51.95c0-3.543-1.025-6.65-3.07-9.322-1.297-1.737-2.83-2.893-4.572-3.494-1.761-.458-3.739-.692-5.943-.692h-34.553v-3.82h32.757c2.995 0 5.704.21 8.154.624a9.49 9.49 0 0 1 3.47 1.45c1.117.678 2.163 1.666 3.135 2.962 2.938 3.79 4.369 8.16 4.307 13.085v29.314zm35.76-43.615c-8.87.168-13.24 5.006-13.074 14.53v46.685h-3.81V52.988c-.178-12.252 5.652-18.368 17.495-18.368h4.235v3.821h-4.846zm64.412.022h-30.14c-2.17 0-4.118.243-5.872.703-1.836.414-3.607 1.528-5.267 3.34-1.59 1.653-2.588 3.289-3.012 4.926-.559 1.652-.809 3.633-.719 5.942V83.14c0 4.949 1.434 8.315 4.34 10.125 1.434.839 3.006 1.467 4.774 1.889 1.76.467 3.716.699 5.88.699h13.176c4.92 0 8.947-1.132 12.041-3.42 3.112-2.142 4.694-5.843 4.8-11.114V38.463zm3.81 43.118c-.34 12.32-6.86 18.358-19.56 18.103h-14.129c-2.984 0-5.654-.261-8.012-.758-2.427-.628-4.754-2.11-6.99-4.418-1.683-2.074-2.765-4.17-3.199-6.32-.582-2.142-.838-4.53-.748-7.135V53.276c.166-12.512 6.467-18.732 18.92-18.637h29.908v-21.09h3.81V81.58zM6.834 32.584c1.249-.552 2.499-.98 3.747-1.251 2.297-10.966 12.011-19.195 23.657-19.195 11.651 0 21.37 8.24 23.663 19.206 3.578.676 6.534 2.125 8.838 4.276a34.94 34.94 0 0 0-.239-6.044C65.022 13.005 51.128 0 34.189 0 16.746 0 2.548 13.825 1.81 31.107a46.288 46.288 0 0 0-.079 4.672c1.464-1.235 3.135-2.343 5.103-3.195"/><path d="M53.17 35.042H14.306c-1.872 0-3.81.432-5.805 1.326-1.923.84-3.505 1.857-4.767 3.07C1.319 42.336.085 46.576 0 52.153v30.383c.085 5.59 1.319 9.823 3.733 12.708 1.262 1.234 2.844 2.248 4.767 3.096 1.996.876 3.933 1.316 5.805 1.316H53.17c10.037-.09 15.145-5.594 15.306-16.482V51.518c-.161-10.903-5.27-16.39-15.306-16.476"/></g></svg>