<svg xmlns="http://www.w3.org/2000/svg" width="253" height="64" viewBox="0 0 253 64">
    <g fill="none" fill-rule="evenodd">
        <path fill="#FFFFFE" d="M86.288 46.053c1.396-.719 2.096-1.865 2.096-3.438 0-.894-.726-1.755-2.177-2.583-1.45-.828-3.2-1.696-5.248-2.604a59.183 59.183 0 0 1-6.163-3.193c-2.062-1.221-3.81-2.915-5.248-5.086-1.438-2.169-2.156-4.651-2.156-7.445 0-5.722 2.271-10.625 6.814-14.707C78.75 2.916 85.074.875 93.184.875c2.766 0 5.417.291 7.954.874 2.536.584 4.61 1.282 6.224 2.095 1.613.814 3.03 1.621 4.251 2.421 1.221.801 2.075 1.513 2.563 2.137l.854.813-12.57 10.739c-.217-.27-.564-.616-1.037-1.036-.476-.421-1.438-.963-2.889-1.628-1.45-.664-2.923-.996-4.414-.996-1.709 0-3.065.332-4.068.996-1.004.665-1.506 1.553-1.506 2.664 0 .896.72 1.75 2.156 2.564 1.438.813 3.188 1.675 5.248 2.583 2.062.909 4.13 1.96 6.204 3.153 2.075 1.194 3.838 2.875 5.29 5.045 1.45 2.169 2.176 4.638 2.176 7.403 0 6.211-2.319 11.406-6.957 15.582-4.638 4.177-11.174 6.266-19.608 6.266-2.957 0-5.826-.346-8.605-1.037-2.78-.692-5.099-1.526-6.957-2.503-1.858-.976-3.513-1.952-4.963-2.929-1.45-.976-2.503-1.817-3.153-2.522l-1.018-1.017L70.89 42.209c.325.379.807.833 1.444 1.363.638.528 1.926 1.253 3.865 2.176 1.94.922 3.831 1.383 5.675 1.383a9.513 9.513 0 0 0 4.414-1.078M144.743 21.623l19.242-19.08h21.928l-25.102 24.694 14.444 33.645h-20.423l-8.584-20.342-6.834 6.753-2.93 13.59h-18.756l12.368-58.34h18.714zM52.798 7.892c-3.77-3.565-8.544-5.35-14.32-5.35H12.482L.113 60.88h18.755l3.336-15.825h.025l3.82-18.123h-5.082l1.333-6.234a10.289 10.289 0 0 0 3.907-1.412c1.19-.731 2.033-1.42 2.53-2.067l.746-.927h9.238l-6.076 28.756c7.534-.038 13.712-2.31 18.525-6.827 4.856-4.558 7.282-10.415 7.282-17.576 0-4.936-1.884-9.187-5.654-12.754M243.813 9.908C237.989 4.083 230.245.876 222.008.876s-15.981 3.207-21.805 9.032c-5.825 5.824-9.033 13.568-9.033 21.805 0 8.236 3.208 15.98 9.033 21.804 5.824 5.825 13.568 9.033 21.805 9.033s15.98-3.208 21.805-9.032c5.825-5.825 9.032-13.569 9.032-21.806s-3.207-15.98-9.032-21.805"/>
        <path fill="#D8213B" d="M243.076 52.78c-3.67 3.67-8.127 6.264-12.992 7.625l-1.575-2.136.026-.02c2.403-2.112 4.662-4.48 6.043-6.333.136-.183.268-.364.393-.54 1.82-.83 6.792-3.215 10.091-5.91l2.565 1.48a29.947 29.947 0 0 1-4.552 5.835zm-46.688-5.834l2.565-1.48c3.298 2.695 8.27 5.08 10.091 5.91.126.176.257.357.392.54 1.382 1.854 3.642 4.22 6.046 6.333l.024.02-1.575 2.136c-4.864-1.361-9.322-3.955-12.992-7.624a30.01 30.01 0 0 1-4.55-5.835zm-3.264-22.585l2.635-.296.006.032c.626 3.137 1.546 6.278 2.46 8.4.091.21.183.414.274.61-.192 1.992-.613 7.49.072 11.695l-2.565 1.482c-2.476-4.4-3.792-9.384-3.792-14.571 0-2.513.309-4.978.91-7.352zm52.394 8.747c.09-.197.181-.401.272-.61.916-2.123 1.835-5.264 2.462-8.401l.006-.032 2.635.296c.6 2.374.91 4.839.91 7.352 0 5.187-1.319 10.17-3.792 14.57l-2.566-1.481c.686-4.204.264-9.702.073-11.694zM229.18 19.226l3.814-7.757.136.016c2.245.263 5.367 1.023 8.349 2.033.228.077.45.155.668.233a27.084 27.084 0 0 1 5.486 9.502 37.81 37.81 0 0 1-.132.694c-.617 3.088-1.52 6.17-2.415 8.248l-.053.124-8.625-.575-7.227-12.518zm-27.977-8.84c5.505-5.373 12.728-8.367 20.421-8.462V4.87c-3.983 1.509-8.535 4.623-10.163 5.784-.218.02-.44.044-.664.07-2.298.269-5.477 1.042-8.507 2.069l-.03.01-1.056-2.417zm-2.565 7.835a27.18 27.18 0 0 1 3.228-4.47c.22-.078.442-.156.67-.233 2.98-1.01 6.101-1.77 8.35-2.033l.133-.016 3.814 7.757-7.227 12.518-8.625.575-.053-.124c-.895-2.077-1.798-5.16-2.415-8.248a68.32 68.32 0 0 1-.132-.694 27.079 27.079 0 0 1 2.257-5.032zm23.75-16.297c7.694.095 14.916 3.089 20.422 8.463l-1.055 2.417-.031-.01c-3.03-1.027-6.21-1.8-8.505-2.07a39 39 0 0 0-.666-.07c-1.629-1.16-6.18-4.274-10.165-5.783V1.924zm6.81 41.48h-14.383l-6.529-11.31 7.191-12.455h13.058l7.191 12.456-6.528 11.309zm-1.706 14.73a27.012 27.012 0 0 1-5.484.562c-1.88 0-3.715-.194-5.487-.561a57.294 57.294 0 0 1-.535-.461c-2.367-2.078-4.585-4.401-5.935-6.214l-.082-.11 4.811-7.181h14.453l4.811 7.18c-.026.037-.052.074-.08.11-1.35 1.814-3.57 4.137-5.935 6.215-.181.158-.36.312-.536.46zm16.32-48.226C237.988 4.083 230.244.876 222.008.876c-8.238 0-15.982 3.207-21.806 9.032-5.825 5.824-9.032 13.568-9.032 21.805s3.208 15.98 9.031 21.805c5.825 5.825 13.569 9.033 21.806 9.033 8.236 0 15.98-3.208 21.804-9.033 5.825-5.824 9.033-13.568 9.033-21.805s-3.208-15.981-9.032-21.805z"/>
    </g>
</svg>
